<svg xmlns="http://www.w3.org/2000/svg" width="1919" height="1079" viewBox="0 0 1919 1079">
  <defs>
    <linearGradient id="bg" x1="0" y1="0" x2="1" y2="1">
      <stop offset="0%" stop-color="#0a0a0a"/>
      <stop offset="100%" stop-color="#0f0f0f"/>
    </linearGradient>
    <linearGradient id="panelGrad" x1="0" y1="0" x2="0" y2="1">
      <stop offset="0%" stop-color="#141414"/>
      <stop offset="100%" stop-color="#111111"/>
    </linearGradient>
    <linearGradient id="plotGrad" x1="0" y1="0" x2="0" y2="1">
      <stop offset="0%" stop-color="#e23614" stop-opacity="0.25"/>
      <stop offset="100%" stop-color="#e23614" stop-opacity="0"/>
    </linearGradient>
    <linearGradient id="plotGrad2" x1="0" y1="0" x2="0" y2="1">
      <stop offset="0%" stop-color="#6ab0f5" stop-opacity="0.18"/>
      <stop offset="100%" stop-color="#6ab0f5" stop-opacity="0"/>
    </linearGradient>
    <clipPath id="plotClip">
      <rect x="680" y="130" width="580" height="340"/>
    </clipPath>
  </defs>

  <!-- Background -->
  <rect width="1919" height="1079" fill="url(#bg)"/>

  <!-- Subtle grid -->
  <g opacity="0.025" stroke="#ffffff" stroke-width="1">
    <line x1="0" y1="270" x2="1919" y2="270"/>
    <line x1="0" y1="540" x2="1919" y2="540"/>
    <line x1="0" y1="810" x2="1919" y2="810"/>
    <line x1="480" y1="0" x2="480" y2="1079"/>
    <line x1="960" y1="0" x2="960" y2="1079"/>
    <line x1="1440" y1="0" x2="1440" y2="1079"/>
  </g>

  <!-- ── LEFT: Python code panel ─────────────────────────────── -->
  <rect x="80" y="80" width="560" height="919" rx="4" fill="url(#panelGrad)" stroke="#1e1e1e" stroke-width="1"/>
  <rect x="80" y="80" width="560" height="36" rx="4" fill="#181818"/>
  <rect x="80" y="104" width="560" height="12" fill="#181818"/>
  <circle cx="108" cy="98" r="6" fill="#3a3a3a"/>
  <circle cx="130" cy="98" r="6" fill="#3a3a3a"/>
  <circle cx="152" cy="98" r="6" fill="#3a3a3a"/>
  <text x="360" y="102" text-anchor="middle" font-size="11" fill="#555" letter-spacing="0.1em">power_sensor.py</text>

  <!-- line numbers -->
  <g fill="#2a2a2a" font-size="13">
    <text x="106" y="158">1</text><text x="106" y="180">2</text><text x="106" y="202">3</text>
    <text x="106" y="224">4</text><text x="106" y="246">5</text><text x="106" y="268">6</text>
    <text x="106" y="290">7</text><text x="106" y="312">8</text><text x="106" y="334">9</text>
    <text x="99" y="356">10</text><text x="99" y="378">11</text><text x="99" y="400">12</text>
    <text x="99" y="422">13</text><text x="99" y="444">14</text><text x="99" y="466">15</text>
    <text x="99" y="488">16</text><text x="99" y="510">17</text><text x="99" y="532">18</text>
    <text x="99" y="554">19</text><text x="99" y="576">20</text><text x="99" y="598">21</text>
    <text x="99" y="620">22</text><text x="99" y="642">23</text><text x="99" y="664">24</text>
    <text x="99" y="686">25</text><text x="99" y="708">26</text><text x="99" y="730">27</text>
    <text x="99" y="752">28</text><text x="99" y="774">29</text><text x="99" y="796">30</text>
    <text x="99" y="818">31</text><text x="99" y="840">32</text><text x="99" y="862">33</text>
    <text x="99" y="884">34</text><text x="99" y="906">35</text>
  </g>
  <line x1="128" y1="118" x2="128" y2="980" stroke="#1e1e1e" stroke-width="1"/>

  <!-- Python source -->
  <g font-size="13">
    <text x="142" y="158" fill="#5a8a5a">"""Mini-Circuits USB Power Sensor wrapper."""</text>
    <text x="142" y="180" fill="#5a8a5a">"""Bridges vendor .NET DLL → clean Python API."""</text>
    <text x="142" y="202" fill="#555"> </text>

    <text x="142" y="224" fill="#e23614">import</text>
    <text x="190" y="224" fill="#aaa"> clr</text>
    <text x="142" y="246" fill="#e23614">import</text>
    <text x="190" y="246" fill="#aaa"> time</text>
    <text x="142" y="268" fill="#e23614">from</text>
    <text x="178" y="268" fill="#c8a96e"> pathlib </text>
    <text x="266" y="268" fill="#e23614">import</text>
    <text x="314" y="268" fill="#aaa"> Path</text>
    <text x="142" y="290" fill="#555"> </text>

    <text x="142" y="312" fill="#aaa">clr.AddReference(</text>
    <text x="332" y="312" fill="#a8d8a8">"mcl_pm64"</text>
    <text x="432" y="312" fill="#aaa">)</text>
    <text x="142" y="334" fill="#e23614">from</text>
    <text x="178" y="334" fill="#aaa"> mcl_pm64 </text>
    <text x="268" y="334" fill="#e23614">import</text>
    <text x="316" y="334" fill="#aaa"> usb_pm</text>
    <text x="142" y="356" fill="#555"> </text>

    <text x="142" y="378" fill="#555"> </text>
    <text x="142" y="400" fill="#e23614">class</text>
    <text x="184" y="400" fill="#6ab0f5"> PowerSensor</text>
    <text x="303" y="400" fill="#aaa">:</text>
    <text x="142" y="422" fill="#5a8a5a">    """Pythonic wrapper for USB power sensor."""</text>
    <text x="142" y="444" fill="#555"> </text>
    <text x="142" y="466" fill="#e23614">    def</text>
    <text x="178" y="466" fill="#6ab0f5"> __init__</text>
    <text x="250" y="466" fill="#aaa">(</text>
    <text x="258" y="466" fill="#c8a96e">self</text>
    <text x="288" y="466" fill="#aaa">,</text>
    <text x="296" y="466" fill="#c8a96e"> freq_hz</text>
    <text x="368" y="466" fill="#aaa">=</text>
    <text x="376" y="466" fill="#6ab0f5">2.4e9</text>
    <text x="420" y="466" fill="#aaa">):</text>

    <text x="142" y="488" fill="#aaa">        self._pm = usb_pm()</text>
    <text x="142" y="510" fill="#aaa">        self._freq = freq_hz</text>
    <text x="142" y="532" fill="#aaa">        self._connect()</text>
    <text x="142" y="554" fill="#555"> </text>

    <text x="142" y="576" fill="#e23614">    def</text>
    <text x="178" y="576" fill="#6ab0f5"> _connect</text>
    <text x="248" y="576" fill="#aaa">(</text>
    <text x="256" y="576" fill="#c8a96e">self</text>
    <text x="284" y="576" fill="#aaa">):</text>
    <text x="142" y="598" fill="#aaa">        status = self._pm.Open_Sensor(</text>
    <text x="392" y="598" fill="#a8d8a8">""</text>
    <text x="408" y="598" fill="#aaa">)</text>
    <text x="142" y="620" fill="#e23614">        if</text>
    <text x="174" y="620" fill="#aaa"> status != </text>
    <text x="260" y="620" fill="#6ab0f5">1</text>
    <text x="268" y="620" fill="#aaa">:</text>
    <text x="142" y="642" fill="#e23614">            raise</text>
    <text x="222" y="642" fill="#aaa"> RuntimeError(</text>
    <text x="338" y="642" fill="#a8d8a8">"No sensor"</text>
    <text x="430" y="642" fill="#aaa">)</text>
    <text x="142" y="664" fill="#555"> </text>

    <text x="142" y="686" fill="#e23614">    def</text>
    <text x="178" y="686" fill="#6ab0f5"> read_dbm</text>
    <text x="256" y="686" fill="#aaa">(</text>
    <text x="264" y="686" fill="#c8a96e">self</text>
    <text x="292" y="686" fill="#aaa">) -&gt;</text>
    <text x="316" y="686" fill="#6ab0f5"> float</text>
    <text x="356" y="686" fill="#aaa">:</text>
    <text x="142" y="708" fill="#5a8a5a">        """Return power in dBm."""</text>
    <text x="142" y="730" fill="#aaa">        self._pm.SetFrequency(self._freq)</text>
    <text x="142" y="752" fill="#e23614">        return</text>
    <text x="196" y="752" fill="#aaa"> self._pm.ReadPower()</text>
    <text x="142" y="774" fill="#555"> </text>

    <text x="142" y="796" fill="#e23614">    def</text>
    <text x="178" y="796" fill="#6ab0f5"> sweep</text>
    <text x="224" y="796" fill="#aaa">(</text>
    <text x="232" y="796" fill="#c8a96e">self</text>
    <text x="260" y="796" fill="#aaa">,</text>
    <text x="268" y="796" fill="#c8a96e"> n</text>
    <text x="282" y="796" fill="#aaa">=</text>
    <text x="290" y="796" fill="#6ab0f5">100</text>
    <text x="316" y="796" fill="#aaa">,</text>
    <text x="324" y="796" fill="#c8a96e"> dt</text>
    <text x="344" y="796" fill="#aaa">=</text>
    <text x="352" y="796" fill="#6ab0f5">0.05</text>
    <text x="385" y="796" fill="#aaa">):</text>
    <text x="142" y="818" fill="#5a8a5a">        """Sample power n times, dt seconds apart."""</text>
    <text x="142" y="840" fill="#aaa">        readings = []</text>
    <text x="142" y="862" fill="#e23614">        for</text>
    <text x="178" y="862" fill="#aaa"> _ </text>
    <text x="198" y="862" fill="#e23614">in</text>
    <text x="218" y="862" fill="#aaa"> range(n):</text>
    <text x="142" y="884" fill="#aaa">            readings.append(</text>
    <text x="338" y="884" fill="#c8a96e">self</text>
    <text x="368" y="884" fill="#aaa">.read_dbm())</text>
    <text x="142" y="906" fill="#aaa">            time.sleep(dt)</text>
    <text x="142" y="928" fill="#e23614">        return</text>
    <text x="196" y="928" fill="#aaa"> readings</text>
    <!-- cursor -->
    <rect x="142" y="943" width="8" height="15" fill="#e23614" opacity="0.8"/>
  </g>

  <!-- ── MIDDLE TOP: Power plot ───────────────────────────────── -->
  <rect x="680" y="80" width="580" height="390" rx="4" fill="url(#panelGrad)" stroke="#1e1e1e" stroke-width="1"/>
  <rect x="680" y="80" width="580" height="36" rx="4" fill="#181818"/>
  <rect x="680" y="104" width="580" height="12" fill="#181818"/>
  <text x="970" y="102" text-anchor="middle" font-size="11" fill="#555" letter-spacing="0.1em">power vs time — 2.4 GHz · 100 samples</text>

  <!-- Plot axes -->
  <line x1="726" y1="138" x2="726" y2="438" stroke="#222" stroke-width="1"/>
  <line x1="726" y1="438" x2="1228" y2="438" stroke="#222" stroke-width="1"/>

  <!-- Y axis labels -->
  <g font-size="10" fill="#333" text-anchor="end">
    <text x="720" y="142">−10</text>
    <text x="720" y="210">−15</text>
    <text x="720" y="278">−20</text>
    <text x="720" y="346">−25</text>
    <text x="720" y="414">−30</text>
    <text x="720" y="440">dBm</text>
  </g>

  <!-- Horizontal grid lines -->
  <g stroke="#1a1a1a" stroke-width="1" stroke-dasharray="4 4">
    <line x1="726" y1="142" x2="1228" y2="142"/>
    <line x1="726" y1="210" x2="1228" y2="210"/>
    <line x1="726" y1="278" x2="1228" y2="278"/>
    <line x1="726" y1="346" x2="1228" y2="346"/>
  </g>

  <!-- Power trace — red fill -->
  <path clip-path="url(#plotClip)"
    d="M726,320 L731,318 L736,315 L741,317 L746,312 L751,308 L756,310 L761,306 L766,303 L771,307 L776,300 L781,296 L786,299 L791,294 L796,290 L801,293 L806,288 L811,285 L816,287 L821,282 L826,278 L831,281 L836,276 L841,272 L846,275 L851,270 L856,266 L861,269 L866,264 L871,260 L876,263 L881,258 L886,254 L891,257 L896,252 L901,248 L906,251 L911,246 L916,242 L921,245 L926,240 L931,236 L936,239 L941,234 L946,230 L951,233 L956,228 L961,224 L966,227 L971,222 L976,218 L981,221 L986,216 L991,212 L996,215 L1001,210 L1006,206 L1011,209 L1016,204 L1021,200 L1026,203 L1031,205 L1036,208 L1041,212 L1046,215 L1051,218 L1056,222 L1061,218 L1066,221 L1071,217 L1076,220 L1081,216 L1086,219 L1091,215 L1096,218 L1101,214 L1106,217 L1111,213 L1116,210 L1121,213 L1126,209 L1131,206 L1136,209 L1141,205 L1146,202 L1151,205 L1156,201 L1161,198 L1166,201 L1171,197 L1176,194 L1181,197 L1186,193 L1191,190 L1196,193 L1201,196 L1206,192 L1211,195 L1216,191 L1221,194 L1226,190 L1228,189 L1228,438 L726,438 Z"
    fill="url(#plotGrad)" stroke="none"/>
  <path clip-path="url(#plotClip)"
    d="M726,320 L731,318 L736,315 L741,317 L746,312 L751,308 L756,310 L761,306 L766,303 L771,307 L776,300 L781,296 L786,299 L791,294 L796,290 L801,293 L806,288 L811,285 L816,287 L821,282 L826,278 L831,281 L836,276 L841,272 L846,275 L851,270 L856,266 L861,269 L866,264 L871,260 L876,263 L881,258 L886,254 L891,257 L896,252 L901,248 L906,251 L911,246 L916,242 L921,245 L926,240 L931,236 L936,239 L941,234 L946,230 L951,233 L956,228 L961,224 L966,227 L971,222 L976,218 L981,221 L986,216 L991,212 L996,215 L1001,210 L1006,206 L1011,209 L1016,204 L1021,200 L1026,203 L1031,205 L1036,208 L1041,212 L1046,215 L1051,218 L1056,222 L1061,218 L1066,221 L1071,217 L1076,220 L1081,216 L1086,219 L1091,215 L1096,218 L1101,214 L1106,217 L1111,213 L1116,210 L1121,213 L1126,209 L1131,206 L1136,209 L1141,205 L1146,202 L1151,205 L1156,201 L1161,198 L1166,201 L1171,197 L1176,194 L1181,197 L1186,193 L1191,190 L1196,193 L1201,196 L1206,192 L1211,195 L1216,191 L1221,194 L1226,190 L1228,189"
    fill="none" stroke="#e23614" stroke-width="1.5" stroke-linejoin="round"/>

  <!-- Data points -->
  <g fill="#e23614">
    <circle cx="726" cy="320" r="3"/>
    <circle cx="826" cy="278" r="3"/>
    <circle cx="926" cy="240" r="3"/>
    <circle cx="1026" cy="203" r="3"/>
    <circle cx="1126" cy="209" r="3"/>
    <circle cx="1226" cy="190" r="3"/>
  </g>

  <!-- Annotations -->
  <line x1="1026" y1="203" x2="1026" y2="438" stroke="#e23614" stroke-width="1" stroke-dasharray="3 3" opacity="0.4"/>
  <text x="1030" y="220" font-size="11" fill="#e23614">−20.1 dBm</text>

  <!-- X labels -->
  <g font-size="10" fill="#333" text-anchor="middle">
    <text x="726" y="452">0</text>
    <text x="852" y="452">25</text>
    <text x="977" y="452">50</text>
    <text x="1103" y="452">75</text>
    <text x="1228" y="452">100</text>
    <text x="977" y="468">samples</text>
  </g>

  <!-- Stats row -->
  <rect x="680" y="470" width="580" height="1" fill="#1a1a1a"/>
  <rect x="680" y="471" width="580" height="60" fill="#0f0f0f"/>
  <g font-size="12">
    <text x="706" y="492" fill="#555" letter-spacing="0.1em">MIN</text>
    <text x="706" y="510" fill="#6ab0f5">−22.4 dBm</text>
    <text x="830" y="492" fill="#555" letter-spacing="0.1em">MAX</text>
    <text x="830" y="510" fill="#e23614">−18.7 dBm</text>
    <text x="954" y="492" fill="#555" letter-spacing="0.1em">MEAN</text>
    <text x="954" y="510" fill="#aaa">−20.3 dBm</text>
    <text x="1090" y="492" fill="#555" letter-spacing="0.1em">STD</text>
    <text x="1090" y="510" fill="#aaa">±0.84 dB</text>
    <text x="1170" y="492" fill="#555" letter-spacing="0.1em">FREQ</text>
    <text x="1170" y="510" fill="#c8a96e">2.4 GHz</text>
  </g>

  <!-- ── MIDDLE BOTTOM: terminal output ─────────────────────── -->
  <rect x="680" y="560" width="580" height="439" rx="4" fill="#0c0c0c" stroke="#1e1e1e" stroke-width="1"/>
  <rect x="680" y="560" width="580" height="36" rx="4" fill="#151515"/>
  <rect x="680" y="584" width="580" height="12" fill="#151515"/>
  <circle cx="708" cy="578" r="6" fill="#3a1a1a"/>
  <circle cx="730" cy="578" r="6" fill="#3a3018"/>
  <circle cx="752" cy="578" r="6" fill="#1a3a1a"/>
  <text x="970" y="580" text-anchor="middle" font-size="11" fill="#555" letter-spacing="0.1em">python — demo.py</text>

  <g font-size="13">
    <text x="704" y="626" fill="#5a8a5a">$ </text>
    <text x="724" y="626" fill="#aaa">python demo.py</text>

    <text x="704" y="654" fill="#555">PowerSensor v1.0 · Mini-Circuits USB</text>
    <text x="704" y="676" fill="#5a8a5a">✓ Sensor connected (Serial: 11410530020)</text>
    <text x="704" y="698" fill="#aaa">  Frequency set: 2.400 GHz</text>
    <text x="704" y="720" fill="#aaa">  Sweeping 100 samples (dt=50ms)…</text>
    <text x="704" y="742" fill="#555"> </text>
    <text x="704" y="764" fill="#aaa">  [  1]  −19.84 dBm</text>
    <text x="704" y="786" fill="#aaa">  [ 10]  −20.21 dBm</text>
    <text x="704" y="808" fill="#aaa">  [ 25]  −20.58 dBm</text>
    <text x="704" y="830" fill="#aaa">  [ 50]  −21.03 dBm</text>
    <text x="704" y="852" fill="#aaa">  [ 75]  −20.44 dBm</text>
    <text x="704" y="874" fill="#aaa">  [100]  −19.97 dBm</text>
    <text x="704" y="896" fill="#555"> </text>
    <text x="704" y="918" fill="#c8a96e">Results → output/sweep_2400MHz.csv</text>
    <text x="704" y="940" fill="#c8a96e">Plot    → output/power_vs_time.png</text>
    <text x="704" y="962" fill="#5a8a5a">Done. 100 samples in 5.04 s.</text>
    <text x="704" y="984" fill="#5a8a5a">$ </text>
    <rect x="724" y="970" width="8" height="15" fill="#5a8a5a" opacity="0.8"/>
  </g>

  <!-- ── RIGHT: API reference panel ─────────────────────────── -->
  <rect x="1300" y="80" width="539" height="919" rx="4" fill="url(#panelGrad)" stroke="#1e1e1e" stroke-width="1"/>
  <rect x="1300" y="80" width="539" height="36" rx="4" fill="#181818"/>
  <rect x="1300" y="104" width="539" height="12" fill="#181818"/>
  <text x="1570" y="102" text-anchor="middle" font-size="11" fill="#555" letter-spacing="0.1em">API REFERENCE</text>

  <!-- API docs -->
  <g font-size="13">
    <!-- class header -->
    <rect x="1300" y="116" width="539" height="44" fill="#111"/>
    <text x="1320" y="138" fill="#e23614">class</text>
    <text x="1362" y="138" fill="#6ab0f5"> PowerSensor</text>
    <text x="1480" y="138" fill="#aaa">(freq_hz=</text>
    <text x="1563" y="138" fill="#6ab0f5">2.4e9</text>
    <text x="1600" y="138" fill="#aaa">)</text>
    <text x="1320" y="155" fill="#555" font-size="11">Mini-Circuits USB sensor Python wrapper</text>

    <line x1="1300" y1="160" x2="1839" y2="160" stroke="#1a1a1a" stroke-width="1"/>

    <!-- method: read_dbm -->
    <rect x="1300" y="160" width="539" height="120" fill="#121212"/>
    <text x="1320" y="185" fill="#6ab0f5">read_dbm</text>
    <text x="1402" y="185" fill="#aaa">() → </text>
    <text x="1440" y="185" fill="#6ab0f5">float</text>
    <text x="1320" y="207" fill="#5a8a5a" font-size="12">Read instantaneous power in dBm.</text>
    <text x="1320" y="227" fill="#555" font-size="12">Sets frequency, queries sensor via DLL interop.</text>
    <text x="1320" y="249" fill="#555" font-size="12">Returns: power reading (dBm)</text>
    <text x="1320" y="271" fill="#c8a96e" font-size="12">Raises: RuntimeError if sensor disconnected</text>

    <line x1="1300" y1="280" x2="1839" y2="280" stroke="#1a1a1a" stroke-width="1"/>

    <!-- method: sweep -->
    <rect x="1300" y="280" width="539" height="140" fill="#111"/>
    <text x="1320" y="305" fill="#6ab0f5">sweep</text>
    <text x="1370" y="305" fill="#aaa">(n=</text>
    <text x="1396" y="305" fill="#6ab0f5">100</text>
    <text x="1422" y="305" fill="#aaa">, dt=</text>
    <text x="1458" y="305" fill="#6ab0f5">0.05</text>
    <text x="1490" y="305" fill="#aaa">) → </text>
    <text x="1526" y="305" fill="#6ab0f5">list</text>
    <text x="1320" y="327" fill="#5a8a5a" font-size="12">Sample power n times, dt seconds apart.</text>
    <rect x="1320" y="340" width="499" height="52" rx="3" fill="#0d0d0d"/>
    <text x="1336" y="358" fill="#555" font-size="12">n   </text>
    <text x="1370" y="358" fill="#aaa" font-size="12">int   — number of samples</text>
    <text x="1336" y="376" fill="#555" font-size="12">dt  </text>
    <text x="1370" y="376" fill="#aaa" font-size="12">float — interval between samples (s)</text>
    <text x="1320" y="404" fill="#555" font-size="12">Returns: list[float] of dBm readings</text>

    <line x1="1300" y1="420" x2="1839" y2="420" stroke="#1a1a1a" stroke-width="1"/>

    <!-- method: close -->
    <rect x="1300" y="420" width="539" height="80" fill="#121212"/>
    <text x="1320" y="445" fill="#6ab0f5">close</text>
    <text x="1363" y="445" fill="#aaa">() → </text>
    <text x="1401" y="445" fill="#6ab0f5">None</text>
    <text x="1320" y="467" fill="#5a8a5a" font-size="12">Release sensor handle. Use as context manager</text>
    <text x="1320" y="487" fill="#5a8a5a" font-size="12">or call explicitly when done.</text>

    <line x1="1300" y1="500" x2="1839" y2="500" stroke="#1a1a1a" stroke-width="1"/>

    <!-- Example usage box -->
    <rect x="1300" y="500" width="539" height="24" fill="#111"/>
    <text x="1320" y="517" fill="#555" font-size="11" letter-spacing="0.14em">EXAMPLE USAGE</text>

    <rect x="1300" y="524" width="539" height="180" fill="#0d0d0d"/>
    <text x="1320" y="548" fill="#e23614" font-size="13">with</text>
    <text x="1356" y="548" fill="#6ab0f5" font-size="13"> PowerSensor</text>
    <text x="1471" y="548" fill="#aaa" font-size="13">(</text>
    <text x="1479" y="548" fill="#6ab0f5" font-size="13">2.4e9</text>
    <text x="1519" y="548" fill="#aaa" font-size="13">)</text>
    <text x="1535" y="548" fill="#e23614" font-size="13"> as</text>
    <text x="1557" y="548" fill="#c8a96e" font-size="13"> ps</text>
    <text x="1574" y="548" fill="#aaa" font-size="13">:</text>

    <text x="1320" y="572" fill="#5a8a5a" font-size="13">    # single read</text>
    <text x="1320" y="594" fill="#aaa" font-size="13">    pwr = ps.read_dbm()</text>
    <text x="1320" y="616" fill="#aaa" font-size="13">    </text>
    <text x="1336" y="616" fill="#e23614" font-size="13">print</text>
    <text x="1380" y="616" fill="#aaa" font-size="13">(</text>
    <text x="1388" y="616" fill="#a8d8a8" font-size="13">f"Power: {pwr:.2f} dBm"</text>
    <text x="1553" y="616" fill="#aaa" font-size="13">)</text>
    <text x="1320" y="638" fill="#555" font-size="13"> </text>

    <text x="1320" y="660" fill="#5a8a5a" font-size="13">    # sweep 100 samples</text>
    <text x="1320" y="682" fill="#aaa" font-size="13">    data = ps.sweep(n=</text>
    <text x="1480" y="682" fill="#6ab0f5" font-size="13">100</text>
    <text x="1506" y="682" fill="#aaa" font-size="13">, dt=</text>
    <text x="1542" y="682" fill="#6ab0f5" font-size="13">0.05</text>
    <text x="1570" y="682" fill="#aaa" font-size="13">)</text>
    <text x="1320" y="704" fill="#aaa" font-size="13">    plot(data)</text>

    <line x1="1300" y1="704" x2="1839" y2="704" stroke="#1a1a1a" stroke-width="1"/>

    <!-- Device info -->
    <rect x="1300" y="704" width="539" height="24" fill="#111"/>
    <text x="1320" y="721" fill="#555" font-size="11" letter-spacing="0.14em">DEVICE INFO</text>

    <rect x="1300" y="728" width="539" height="160" fill="#0d0d0d"/>
    <g font-size="12">
      <text x="1320" y="752" fill="#555">Vendor</text>
      <text x="1460" y="752" fill="#aaa">Mini-Circuits</text>
      <text x="1320" y="772" fill="#555">Model</text>
      <text x="1460" y="772" fill="#aaa">PWR-6GHS-USB</text>
      <text x="1320" y="792" fill="#555">Interface</text>
      <text x="1460" y="792" fill="#aaa">USB HID via .NET DLL</text>
      <text x="1320" y="812" fill="#555">Range</text>
      <text x="1460" y="812" fill="#aaa">−60 to +20 dBm</text>
      <text x="1320" y="832" fill="#555">Freq range</text>
      <text x="1460" y="832" fill="#aaa">1 MHz – 6 GHz</text>
      <text x="1320" y="852" fill="#555">Resolution</text>
      <text x="1460" y="852" fill="#aaa">0.01 dBm</text>
      <text x="1320" y="872" fill="#555">Language</text>
      <text x="1460" y="872" fill="#c8a96e">Python 3.x · clr / pythonnet</text>
    </g>

    <line x1="1300" y1="888" x2="1839" y2="888" stroke="#1a1a1a" stroke-width="1"/>
    <rect x="1300" y="888" width="539" height="111" fill="#111"/>
    <text x="1320" y="910" fill="#555" font-size="11" letter-spacing="0.14em">DEPENDENCIES</text>
    <text x="1320" y="934" fill="#aaa" font-size="13">pythonnet</text>
    <text x="1434" y="934" fill="#555" font-size="13">≥ 3.0</text>
    <text x="1320" y="956" fill="#aaa" font-size="13">mcl_pm64.dll</text>
    <text x="1434" y="956" fill="#555" font-size="13">vendor SDK</text>
    <text x="1320" y="978" fill="#aaa" font-size="13">matplotlib</text>
    <text x="1434" y="978" fill="#555" font-size="13">optional (plots)</text>
  </g>

  <!-- Bottom label bar -->
  <rect x="0" y="1040" width="1919" height="39" fill="#080808"/>
  <line x1="0" y1="1040" x2="1919" y2="1040" stroke="#1e1e1e" stroke-width="1"/>
  <text x="80" y="1063" font-size="11" fill="#333" letter-spacing="0.2em">MINI-CIRCUITS USB POWER SENSOR WRAPPER · PYTHON · .NET DLL INTEROP</text>
  <text x="1839" y="1063" text-anchor="end" font-size="11" fill="#333" letter-spacing="0.1em">2024</text>
</svg>
